
<svg width="103" height="134" viewBox="0 0 103 134" fill="none" xmlns="http://www.w3.org/2000/svg">
<path d="M102.001 6.94935V114.012C102.001 119.28 99.8661 124.048 96.4137 127.498C92.964 130.95 88.1938 133.085 82.9279 133.085H23.3455C16.9694 133.085 11.8008 127.916 11.8008 121.54V6.94935C11.8008 6.94518 11.8008 6.94126 11.8008 6.93709C11.8021 6.10622 12.0949 5.2965 12.6053 4.64073C14.26 2.51503 17.3875 1.70218 19.9842 3.31406C21.6934 4.37613 23.8541 4.39178 25.5763 3.35059L28.5172 1.57614C30.2578 0.524509 32.2149 0 34.1746 0C36.1422 0 38.1123 0.529728 39.8555 1.58918L40.0068 1.68052C43.4592 3.77855 47.8014 3.74202 51.2199 1.58918C52.9682 0.534947 54.9358 0.00782849 56.9033 0.00782849C58.8709 0.00782849 60.8385 0.534947 62.5842 1.58918C64.33 2.64603 66.2975 3.17315 68.2651 3.17315C70.2327 3.17315 72.2002 2.64603 73.946 1.58918C75.7022 0.57148 77.6645 0.0626279 79.6242 0.0626279C81.6544 0.0626279 83.6846 0.608013 85.4852 1.69617L88.1025 3.27753C89.8796 4.35003 92.1029 4.35003 93.8773 3.27753C94.8037 2.7191 95.7901 2.46337 96.7556 2.46337C98.5186 2.46337 100.197 3.31511 101.248 4.71249C101.729 5.35286 101.999 6.13702 102.001 6.93813V6.94935Z" fill="url(#paint0_linear_1388_2152)"/>
<path d="M101.996 68.1462L58.2121 24.3625C56.5118 21.2473 50.9987 20.0889 46.8081 19.7244C46.7739 18.8523 45.8139 18.0389 44.6709 17.756V17.631C44.6709 16.5306 43.1777 15.509 41.6846 15.509C39.9558 15.509 38.6983 16.5306 38.6983 17.631V19.8314C30.368 21.0101 22.9805 25.804 22.9805 35.7845C22.9805 40.747 25.0477 44.082 28.009 46.5195L38.6985 57.2114V64.7053C32.883 63.6832 30.2112 59.0469 26.9101 59.0469C23.9238 59.0469 21.5664 62.9763 21.5664 65.6484C21.5664 67.717 22.8714 69.7584 25.0616 71.4676L86.3628 132.769C90.25 132.06 93.7289 130.179 96.4089 127.497C99.8612 124.047 101.996 119.28 101.996 114.011V68.1462Z" fill="url(#paint1_linear_1388_2152)"/>
<path d="M102.002 114.012V80.8947H11.8008V125.509C11.8008 129.693 15.1926 133.085 19.3769 133.085H82.9292C88.1951 133.085 92.9653 130.95 96.415 127.498C99.8674 124.048 102.002 119.28 102.002 114.012Z" fill="url(#paint2_linear_1388_2152)"/>
<path d="M62.5898 110.056V114.251C62.5898 124.653 71.0219 133.085 81.4234 133.085H82.9314C83.7852 133.085 84.6242 133.023 85.4483 132.914L62.5898 110.056Z" fill="url(#paint3_linear_1388_2152)"/>
<path d="M63.8547 114.013C63.8547 124.546 72.3935 133.085 82.9264 133.085H19.0718C8.5388 133.085 0 124.546 0 114.013C0 110.007 3.24778 106.759 7.25414 106.759H56.6008C60.6069 106.759 63.8547 110.007 63.8547 114.013Z" fill="url(#paint4_linear_1388_2152)"/>
<path d="M78.4831 82.8375H61.0135C60.7385 82.8375 60.5156 82.6146 60.5156 82.3396V79.4209C60.5156 79.1458 60.7385 78.923 61.0135 78.923H78.4831C78.7581 78.923 78.9809 79.1458 78.9809 79.4209V82.3396C78.9807 82.6146 78.7578 82.8375 78.4831 82.8375Z" fill="#8795DE"/>
<path d="M91.0086 90.405H61.0135C60.7385 90.405 60.5156 90.1822 60.5156 89.9072V86.9884C60.5156 86.7134 60.7385 86.4905 61.0135 86.4905H91.0086C91.2837 86.4905 91.5065 86.7134 91.5065 86.9884V89.9072C91.5063 90.1822 91.2834 90.405 91.0086 90.405Z" fill="#8795DE"/>
<path d="M84.224 97.9726H61.0135C60.7385 97.9726 60.5156 97.7498 60.5156 97.4747V94.556C60.5156 94.281 60.7385 94.0581 61.0135 94.0581H84.224C84.499 94.0581 84.7218 94.281 84.7218 94.556V97.4747C84.7216 97.7498 84.4987 97.9726 84.224 97.9726Z" fill="#8795DE"/>
<path d="M38.4485 75.6038C29.0181 75.2894 21.3164 70.4172 21.3164 65.3874C21.3164 62.7153 23.6738 58.7859 26.6601 58.7859C29.9611 58.7859 32.633 63.4224 38.4485 64.4443V51.7128C31.2181 48.9622 22.7308 45.5829 22.7308 35.5235C22.7308 25.543 30.1182 20.7491 38.4485 19.5704V17.37C38.4485 16.2696 39.7061 15.248 41.4349 15.248C42.928 15.248 44.4212 16.2696 44.4212 17.37V19.3347C49.2934 19.4918 58.4884 20.7491 58.4884 26.1716C58.4884 28.2936 57.0741 32.616 53.6157 32.616C51.0227 32.616 49.5295 30.1012 44.4212 29.7085V41.1822C51.5725 43.8541 59.9033 47.5481 59.9033 58.157C59.9033 67.9022 53.616 73.796 44.4212 75.2891V77.5683C44.4212 78.6687 42.928 79.6903 41.4349 79.6903C39.7061 79.6903 38.4485 78.6687 38.4485 77.5683V75.6038ZM39.234 39.2963V29.9442C35.6979 30.6513 34.2045 32.4589 34.2045 34.3448C34.2045 36.6242 36.248 38.0386 39.234 39.2963ZM43.6357 53.8346V64.3655C46.3073 63.7369 48.4293 62.2437 48.4293 59.415C48.4291 56.8209 46.4644 55.1707 43.6357 53.8346Z" fill="url(#paint5_linear_1388_2152)"/>
<path d="M74.9665 20.7951V39.0937C74.9665 39.4358 74.6695 39.7132 74.3032 39.7132H71.3782C71.0118 39.7132 70.7148 39.4358 70.7148 39.0937V20.7951C70.7148 20.453 71.0118 20.1756 71.3782 20.1756H74.3032C74.6695 20.1756 74.9665 20.453 74.9665 20.7951Z" fill="url(#paint6_linear_1388_2152)"/>
<path d="M85.7371 20.7951V39.0937C85.7371 39.4358 85.4401 39.7132 85.0737 39.7132H82.1477C81.7813 39.7132 81.4844 39.4358 81.4844 39.0937V20.7951C81.4844 20.453 81.7813 20.1756 82.1477 20.1756H85.0737C85.4401 20.1756 85.7371 20.453 85.7371 20.7951Z" fill="url(#paint7_linear_1388_2152)"/>
<path d="M91.5105 20.7951V39.0937C91.5105 39.4358 91.2136 39.7132 90.8472 39.7132H87.9211C87.5548 39.7132 87.2578 39.4358 87.2578 39.0937V20.7951C87.2578 20.453 87.5548 20.1756 87.9211 20.1756H90.8472C91.2136 20.1756 91.5105 20.453 91.5105 20.7951Z" fill="url(#paint8_linear_1388_2152)"/>
<path d="M63.7608 20.7951V39.0937C63.7608 39.4358 63.4638 39.7132 63.0974 39.7132H60.9368C60.5704 39.7132 60.2734 39.4358 60.2734 39.0937V20.7951C60.2734 20.453 60.5704 20.1756 60.9368 20.1756H63.0974C63.4638 20.1756 63.7608 20.453 63.7608 20.7951Z" fill="url(#paint9_linear_1388_2152)"/>
<path d="M68.7022 20.7951V39.0937C68.7022 39.4358 68.4052 39.7132 68.0388 39.7132H65.8782C65.5118 39.7132 65.2148 39.4358 65.2148 39.0937V20.7951C65.2148 20.453 65.5118 20.1756 65.8782 20.1756H68.0388C68.4052 20.1756 68.7022 20.453 68.7022 20.7951Z" fill="url(#paint10_linear_1388_2152)"/>
<path d="M79.7912 20.7951V39.0937C79.7912 39.4358 79.4943 39.7132 79.1279 39.7132H76.968C76.6016 39.7132 76.3047 39.4358 76.3047 39.0937V20.7951C76.3047 20.453 76.6016 20.1756 76.968 20.1756H79.1279C79.4943 20.1756 79.7912 20.453 79.7912 20.7951Z" fill="url(#paint11_linear_1388_2152)"/>
<path d="M70.7148 36.862V39.0932C70.7148 39.435 71.0123 39.7142 71.3777 39.7142H73.567L70.7148 36.862Z" fill="url(#paint12_linear_1388_2152)"/>
<path d="M60.2734 39.0932C60.2734 39.435 60.5683 39.7142 60.9363 39.7142H63.0969C63.4622 39.7142 63.7597 39.435 63.7597 39.0932V29.9077L60.2734 26.4214V39.0932Z" fill="url(#paint13_linear_1388_2152)"/>
<path d="M65.2148 39.0932C65.2148 39.435 65.5123 39.7142 65.8803 39.7142H68.0409C68.4063 39.7142 68.7037 39.435 68.7037 39.0932V34.8501L65.2148 31.3612V39.0932Z" fill="url(#paint14_linear_1388_2152)"/>
<defs>
<linearGradient id="paint0_linear_1388_2152" x1="3.0527" y1="16.3101" x2="132.999" y2="136.08" gradientUnits="userSpaceOnUse">
<stop stop-color="#EAF6FF"/>
<stop offset="0.2575" stop-color="#DCE8FA"/>
<stop offset="0.7423" stop-color="#B8C4ED"/>
<stop offset="1" stop-color="#A2AEE6"/>
</linearGradient>
<linearGradient id="paint1_linear_1388_2152" x1="100.602" y1="95.6717" x2="30.1451" y2="52.0931" gradientUnits="userSpaceOnUse">
<stop stop-color="#7BACDF" stop-opacity="0"/>
<stop offset="1" stop-color="#7BACDF"/>
</linearGradient>
<linearGradient id="paint2_linear_1388_2152" x1="56.9015" y1="92.0287" x2="56.9015" y2="132.233" gradientUnits="userSpaceOnUse">
<stop stop-color="#7BACDF" stop-opacity="0"/>
<stop offset="1" stop-color="#7BACDF"/>
</linearGradient>
<linearGradient id="paint3_linear_1388_2152" x1="90.3176" y1="143.782" x2="63.7258" y2="117.19" gradientUnits="userSpaceOnUse">
<stop stop-color="#8795DE" stop-opacity="0"/>
<stop offset="0.4678" stop-color="#7D8DDC" stop-opacity="0.468"/>
<stop offset="1" stop-color="#6C7FD8"/>
</linearGradient>
<linearGradient id="paint4_linear_1388_2152" x1="41.4634" y1="108.555" x2="41.4634" y2="134.932" gradientUnits="userSpaceOnUse">
<stop stop-color="#EAF6FF"/>
<stop offset="0.2575" stop-color="#DCE8FA"/>
<stop offset="0.7423" stop-color="#B8C4ED"/>
<stop offset="1" stop-color="#A2AEE6"/>
</linearGradient>
<linearGradient id="paint5_linear_1388_2152" x1="21.3164" y1="47.4693" x2="59.9033" y2="47.4693" gradientUnits="userSpaceOnUse">
<stop stop-color="#A2E62E"/>
<stop offset="1" stop-color="#02905D"/>
</linearGradient>
<linearGradient id="paint6_linear_1388_2152" x1="68.1891" y1="18.0489" x2="75.6082" y2="37.0223" gradientUnits="userSpaceOnUse">
<stop stop-color="#537983"/>
<stop offset="1" stop-color="#3E5959"/>
</linearGradient>
<linearGradient id="paint7_linear_1388_2152" x1="77.62" y1="14.6237" x2="85.039" y2="33.5971" gradientUnits="userSpaceOnUse">
<stop stop-color="#537983"/>
<stop offset="1" stop-color="#3E5959"/>
</linearGradient>
<linearGradient id="paint8_linear_1388_2152" x1="82.675" y1="12.7863" x2="90.0941" y2="31.7597" gradientUnits="userSpaceOnUse">
<stop stop-color="#537983"/>
<stop offset="1" stop-color="#3E5959"/>
</linearGradient>
<linearGradient id="paint9_linear_1388_2152" x1="58.715" y1="21.4999" x2="66.1273" y2="40.4559" gradientUnits="userSpaceOnUse">
<stop stop-color="#537983"/>
<stop offset="1" stop-color="#3E5959"/>
</linearGradient>
<linearGradient id="paint10_linear_1388_2152" x1="63.0422" y1="19.9293" x2="70.4544" y2="38.8852" gradientUnits="userSpaceOnUse">
<stop stop-color="#537983"/>
<stop offset="1" stop-color="#3E5959"/>
</linearGradient>
<linearGradient id="paint11_linear_1388_2152" x1="72.7534" y1="16.4046" x2="80.1657" y2="35.3608" gradientUnits="userSpaceOnUse">
<stop stop-color="#537983"/>
<stop offset="1" stop-color="#3E5959"/>
</linearGradient>
<linearGradient id="paint12_linear_1388_2152" x1="79.0798" y1="46.465" x2="58.9825" y2="26.3677" gradientUnits="userSpaceOnUse">
<stop stop-color="#384949" stop-opacity="0"/>
<stop offset="1" stop-color="#384949"/>
</linearGradient>
<linearGradient id="paint13_linear_1388_2152" x1="76.4687" y1="49.0755" x2="56.3712" y2="28.978" gradientUnits="userSpaceOnUse">
<stop stop-color="#384949" stop-opacity="0"/>
<stop offset="1" stop-color="#384949"/>
</linearGradient>
<linearGradient id="paint14_linear_1388_2152" x1="77.7057" y1="47.8402" x2="57.6082" y2="27.7429" gradientUnits="userSpaceOnUse">
<stop stop-color="#384949" stop-opacity="0"/>
<stop offset="1" stop-color="#384949"/>
</linearGradient>
</defs>
</svg>
