<svg width="60" height="44" viewBox="0 0 60 44" fill="none" xmlns="http://www.w3.org/2000/svg">
<path d="M41.9779 23.4542C30.8195 22.6387 19.661 19.6626 8.50252 20.6319V40.5886C5.84221 40.8099 3.20846 41.2841 0.63623 42.0048L0.63623 2.22075C12.6202 -1.1737 24.6028 1.63722 36.5868 3.09035V10.9182C27.2258 9.77962 17.8635 7.8198 8.50252 8.63248V16.6325C8.98712 16.5899 9.47313 16.5557 9.95773 16.5272V16.6155C20.5865 16.0092 31.2153 18.739 41.8441 19.5331C42.3866 19.5756 42.8951 19.8169 43.2739 20.2116C43.6527 20.6064 43.8757 21.1273 43.9008 21.6765C43.896 21.9193 43.8438 22.1587 43.7471 22.381C43.6504 22.6032 43.5111 22.804 43.3373 22.9717C43.1566 23.1435 42.9423 23.2752 42.7082 23.3583C42.4741 23.4414 42.2253 23.4741 41.9779 23.4542Z" fill="#F68100"/>
<path d="M59.6361 2.22067V42.0047C45.2136 46.0894 30.7911 41.1877 16.3687 40.479V28.5436C24.9942 28.9706 33.6184 30.8906 42.244 31.494C47.4366 31.8996 51.6585 27.3054 51.767 22.0693V21.5982C51.7462 20.301 51.4718 19.0208 50.9598 17.8311C50.4478 16.6414 49.7081 15.5656 48.7833 14.6655C46.8257 12.7724 44.2762 11.6279 41.5735 11.4291C41.0306 11.3864 40.4878 11.3389 39.945 11.2868V3.4589C46.5082 4.07659 53.0728 4.07943 59.6361 2.22067Z" fill="#F64900"/>
</svg>
