<svg width="26" height="26" viewBox="0 0 26 26" fill="none" xmlns="http://www.w3.org/2000/svg">
<path d="M13 26C20.1797 26 26 20.1797 26 13C26 5.8203 20.1797 0 13 0C5.8203 0 0 5.8203 0 13C0 20.1797 5.8203 26 13 26Z" fill="#777E90" fill-opacity="0.2"/>
<path d="M12.8477 6.20764L9.19672 12.0956C9.15264 12.1667 9.17412 12.26 9.24486 12.3046L12.9694 14.657C13.0196 14.6887 13.0838 14.6883 13.1336 14.656L16.7571 12.3056C16.8269 12.2604 16.8475 12.1674 16.8032 12.0968L13.1063 6.20688C13.0463 6.11146 12.9071 6.11186 12.8477 6.20764Z" fill="#777E90"/>
<path d="M13.1037 16.6939L16.304 14.7035C16.4427 14.6173 16.6015 14.7802 16.5117 14.9167L13.2872 19.8146C13.2285 19.9039 13.0984 19.9065 13.0362 19.8196L9.54706 14.951C9.45022 14.8159 9.60901 14.6454 9.75064 14.7325L12.9435 16.6944C12.9927 16.7246 13.0547 16.7245 13.1037 16.6939Z" fill="#777E90"/>
</svg>
